<svg width="20" height="20" viewBox="0 0 20 20" fill="none" xmlns="http://www.w3.org/2000/svg">
<path fill-rule="evenodd" clip-rule="evenodd" d="M6.51416 15.7781C6.28343 15.5473 6.15381 15.2343 6.15381 14.908C6.15381 14.5816 6.28343 14.2686 6.51416 14.0378L10.5671 9.98491L6.51416 5.93199C6.28997 5.69987 6.16591 5.38897 6.16872 5.06627C6.17152 4.74356 6.30096 4.43487 6.52915 4.20668C6.75735 3.97848 7.06604 3.84904 7.38874 3.84624C7.71145 3.84343 8.02234 3.96749 8.25447 4.19168L13.1775 9.11476C13.4083 9.34556 13.5379 9.65856 13.5379 9.98491C13.5379 10.3113 13.4083 10.6243 13.1775 10.8551L8.25447 15.7781C8.02367 16.0089 7.71067 16.1385 7.38431 16.1385C7.05796 16.1385 6.74496 16.0089 6.51416 15.7781Z" fill="white" fill-opacity="0.4"/>
</svg>
