<svg width="152" height="36" viewBox="0 0 152 36" fill="none" xmlns="http://www.w3.org/2000/svg">
<path d="M0 0.5H30C32.7614 0.5 35 2.73858 35 5.5V30.5C35 33.2614 32.7614 35.5 30 35.5H0V0.5Z" fill="#2F3439"/>
<rect x="10" y="11" width="13" height="2" fill="#D9D9D9"/>
<rect x="10" y="17" width="10" height="2" fill="#D9D9D9"/>
<rect x="10" y="23" width="13" height="2" fill="#D9D9D9"/>
<path d="M25.8286 18.481C26.0634 18.3228 26.0634 17.9772 25.8286 17.8191L22.4419 15.5378C22.1768 15.3593 21.8199 15.5492 21.8199 15.8688V20.4313C21.8199 20.7508 22.1768 20.9407 22.4419 20.7622L25.8286 18.481Z" fill="#FF0066"/>
<path d="M54.96 26H49.68V13.616H45.528V8.96H59.112V13.616H54.96V26ZM66.2244 26H60.9444V8.96H66.2244V26ZM80.6754 26L80.1954 24.392C79.1394 25.688 77.6914 26.336 75.8514 26.336C74.7794 26.336 73.7794 26.12 72.8514 25.688C71.9394 25.256 71.1554 24.656 70.4994 23.888C69.8434 23.104 69.3234 22.176 68.9394 21.104C68.5714 20.032 68.3874 18.864 68.3874 17.6C68.3874 16.288 68.5874 15.08 68.9874 13.976C69.3874 12.872 69.9474 11.928 70.6674 11.144C71.3874 10.344 72.2434 9.728 73.2354 9.296C74.2434 8.848 75.3474 8.624 76.5474 8.624C77.3474 8.624 78.1074 8.72 78.8274 8.912C79.5634 9.104 80.2434 9.384 80.8674 9.752C81.5074 10.12 82.0754 10.568 82.5714 11.096C83.0674 11.608 83.4834 12.192 83.8194 12.848L79.3074 15.152C79.0354 14.528 78.6674 14.048 78.2034 13.712C77.7554 13.36 77.2434 13.184 76.6674 13.184C75.7874 13.184 75.0994 13.576 74.6034 14.36C74.1074 15.144 73.8594 16.24 73.8594 17.648C73.8594 19.024 74.1074 20.096 74.6034 20.864C75.0994 21.632 75.8034 22.016 76.7154 22.016C77.2434 22.016 77.7154 21.888 78.1314 21.632C78.5634 21.36 78.8834 20.984 79.0914 20.504H76.5954V16.712H84.0354V26H80.6754ZM98.6811 21.44V26H86.5851V8.96H98.2971V13.52H91.8651V15.344H97.5771V19.52H91.8651V21.44H98.6811ZM115.33 26H109.402L106.978 20.432H106.162V26H100.882V8.96H107.698C108.738 8.96 109.674 9.096 110.506 9.368C111.354 9.624 112.066 10 112.642 10.496C113.234 10.992 113.682 11.6 113.986 12.32C114.306 13.024 114.466 13.816 114.466 14.696C114.466 15.736 114.258 16.656 113.842 17.456C113.426 18.256 112.81 18.896 111.994 19.376L115.33 26ZM106.162 16.64H107.434C108.602 16.64 109.186 16.12 109.186 15.08C109.186 14.04 108.602 13.52 107.434 13.52H106.162V16.64Z" fill="#FF0066"/>
<path d="M118.495 26.21C117.985 26.21 117.56 26.05 117.22 25.73C116.89 25.4 116.725 24.97 116.725 24.44C116.725 23.91 116.89 23.485 117.22 23.165C117.56 22.835 117.985 22.67 118.495 22.67C119.005 22.67 119.425 22.835 119.755 23.165C120.095 23.485 120.265 23.91 120.265 24.44C120.265 24.97 120.095 25.4 119.755 25.73C119.425 26.05 119.005 26.21 118.495 26.21ZM126.503 22.76L129.053 23.9C128.713 24.64 128.228 25.21 127.598 25.61C126.978 26.01 126.258 26.21 125.438 26.21C124.858 26.21 124.323 26.115 123.833 25.925C123.353 25.725 122.943 25.445 122.603 25.085C122.263 24.725 121.998 24.295 121.808 23.795C121.618 23.295 121.523 22.74 121.523 22.13C121.523 21.51 121.618 20.95 121.808 20.45C122.008 19.94 122.283 19.505 122.633 19.145C122.983 18.775 123.403 18.49 123.893 18.29C124.383 18.09 124.923 17.99 125.513 17.99C126.333 17.99 127.048 18.185 127.658 18.575C128.278 18.955 128.733 19.495 129.023 20.195L126.413 21.38C126.263 20.86 125.993 20.6 125.603 20.6C125.313 20.6 125.088 20.73 124.928 20.99C124.778 21.25 124.703 21.615 124.703 22.085C124.703 22.555 124.783 22.925 124.943 23.195C125.103 23.465 125.323 23.6 125.603 23.6C126.003 23.6 126.303 23.32 126.503 22.76ZM133.995 26.21C133.395 26.21 132.85 26.115 132.36 25.925C131.87 25.725 131.445 25.445 131.085 25.085C130.735 24.725 130.465 24.295 130.275 23.795C130.085 23.285 129.99 22.725 129.99 22.115C129.99 21.495 130.085 20.935 130.275 20.435C130.475 19.925 130.75 19.49 131.1 19.13C131.45 18.77 131.875 18.49 132.375 18.29C132.875 18.09 133.425 17.99 134.025 17.99C134.625 17.99 135.17 18.09 135.66 18.29C136.15 18.48 136.57 18.755 136.92 19.115C137.28 19.475 137.555 19.905 137.745 20.405C137.935 20.905 138.03 21.465 138.03 22.085C138.03 22.705 137.93 23.27 137.73 23.78C137.54 24.28 137.27 24.71 136.92 25.07C136.57 25.43 136.145 25.71 135.645 25.91C135.145 26.11 134.595 26.21 133.995 26.21ZM134.01 23.66C134.27 23.66 134.475 23.525 134.625 23.255C134.775 22.975 134.85 22.59 134.85 22.1C134.85 21.61 134.775 21.23 134.625 20.96C134.475 20.68 134.27 20.54 134.01 20.54C133.75 20.54 133.545 20.68 133.395 20.96C133.245 21.23 133.17 21.61 133.17 22.1C133.17 22.59 133.245 22.975 133.395 23.255C133.545 23.525 133.75 23.66 134.01 23.66ZM142.404 26H139.224V18.2H142.284V18.86C142.864 18.28 143.524 17.99 144.264 17.99C144.694 17.99 145.084 18.08 145.434 18.26C145.784 18.44 146.069 18.7 146.289 19.04C146.989 18.34 147.779 17.99 148.659 17.99C149.449 17.99 150.064 18.245 150.504 18.755C150.944 19.255 151.164 19.955 151.164 20.855V26H147.984V21.275C147.984 20.785 147.794 20.54 147.414 20.54C147.184 20.54 146.974 20.62 146.784 20.78V26H143.604V21.275C143.604 20.785 143.414 20.54 143.034 20.54C142.804 20.54 142.594 20.62 142.404 20.78V26Z" fill="white"/>
</svg>
