<svg width="52" height="52" viewBox="0 0 52 52" fill="none" xmlns="http://www.w3.org/2000/svg">
<g filter="url(#filter0_d_175_4785)">
<path d="M47.5591 14.6586H37.537C38.1746 14.2248 38.6826 13.8282 38.9896 13.5361C41.9997 10.6669 41.9997 5.99668 38.9484 3.08935C37.441 1.74214 35.504 1 33.4927 1C31.488 1 29.5522 1.74158 27.9658 3.15676C26.3971 4.72756 22.3853 10.5417 23.667 14.6086C21.9987 14.6816 17.6545 12.767 15.9667 11.158C15.3032 10.6046 14.9714 9.81413 14.9714 8.94446C14.9714 8.154 15.3032 7.36354 15.9667 6.73095C17.2932 5.46633 19.3663 5.46633 20.6928 6.73095C21.3564 7.36298 22.3511 7.36298 23.0146 6.73095C23.6782 6.09836 23.6782 5.15004 23.0146 4.51745C20.4441 2.06686 16.2154 2.06686 13.6449 4.51745C12.401 5.78207 11.738 7.36298 11.738 9.02311C11.738 10.7625 12.4015 12.3434 13.6449 13.5293C13.9643 13.8147 14.4988 14.2159 15.1724 14.6586H4.44144C2.54393 14.6586 1 16.1305 1 17.9395V25.8446C1 27.6531 2.54393 29.125 4.44144 29.125H24.2168V47.601H11.8311C10.0556 47.601 8.61124 45.8234 8.61124 43.638V31.775C8.61124 30.8362 7.81335 30.0756 6.82865 30.0756C5.84395 30.0756 5.04605 30.8362 5.04605 31.775V43.638C5.04605 47.6976 8.09031 50.9999 11.8317 50.9999H40.17C43.9114 50.9999 46.9556 47.6971 46.9556 43.638V31.775C46.9556 30.8362 46.1577 30.0756 45.173 30.0756C44.1883 30.0756 43.3904 30.8362 43.3904 31.775V43.638C43.3904 45.8229 41.9461 47.601 40.1706 47.601H27.7831V29.125H47.5585C49.456 29.125 50.9999 27.6531 50.9999 25.8446V17.9395C51.0005 16.1299 49.4566 14.6586 47.5591 14.6586ZM30.475 5.57139C31.3236 4.81577 32.3961 4.39947 33.4933 4.39947C34.6106 4.39947 35.6543 4.80397 36.4686 5.53094C38.0886 7.07534 38.0886 9.58828 36.4686 11.1327C35.3567 12.1922 31.2829 14.6024 28.7372 14.6024C27.8409 14.6024 27.5068 14.2838 27.3972 14.1793C25.8243 12.6793 28.8639 7.1877 30.475 5.57139ZM4.56637 25.7255V18.058H24.2179V25.7255H4.56637ZM47.4347 25.7255H27.7831V18.058H47.4341V25.7255H47.4347Z" fill="black"/>
</g>
<path d="M47.5591 14.6586H37.537C38.1746 14.2248 38.6826 13.8282 38.9896 13.5361C41.9997 10.6669 41.9997 5.99668 38.9484 3.08935C37.441 1.74214 35.504 1 33.4927 1C31.488 1 29.5522 1.74158 27.9658 3.15676C26.3971 4.72756 22.3853 10.5417 23.667 14.6086C21.9987 14.6816 17.6545 12.767 15.9667 11.158C15.3032 10.6046 14.9714 9.81413 14.9714 8.94446C14.9714 8.154 15.3032 7.36354 15.9667 6.73095C17.2932 5.46633 19.3663 5.46633 20.6928 6.73095C21.3564 7.36298 22.3511 7.36298 23.0146 6.73095C23.6782 6.09836 23.6782 5.15004 23.0146 4.51745C20.4441 2.06686 16.2154 2.06686 13.6449 4.51745C12.401 5.78207 11.738 7.36298 11.738 9.02311C11.738 10.7625 12.4015 12.3434 13.6449 13.5293C13.9643 13.8147 14.4988 14.2159 15.1724 14.6586H4.44144C2.54393 14.6586 1 16.1305 1 17.9395V25.8446C1 27.6531 2.54393 29.125 4.44144 29.125H24.2168V47.601H11.8311C10.0556 47.601 8.61124 45.8234 8.61124 43.638V31.775C8.61124 30.8362 7.81335 30.0756 6.82865 30.0756C5.84395 30.0756 5.04605 30.8362 5.04605 31.775V43.638C5.04605 47.6976 8.09031 50.9999 11.8317 50.9999H40.17C43.9114 50.9999 46.9556 47.6971 46.9556 43.638V31.775C46.9556 30.8362 46.1577 30.0756 45.173 30.0756C44.1883 30.0756 43.3904 30.8362 43.3904 31.775V43.638C43.3904 45.8229 41.9461 47.601 40.1706 47.601H27.7831V29.125H47.5585C49.456 29.125 50.9999 27.6531 50.9999 25.8446V17.9395C51.0005 16.1299 49.4566 14.6586 47.5591 14.6586ZM30.475 5.57139C31.3236 4.81577 32.3961 4.39947 33.4933 4.39947C34.6106 4.39947 35.6543 4.80397 36.4686 5.53094C38.0886 7.07534 38.0886 9.58828 36.4686 11.1327C35.3567 12.1922 31.2829 14.6024 28.7372 14.6024C27.8409 14.6024 27.5068 14.2838 27.3972 14.1793C25.8243 12.6793 28.8639 7.1877 30.475 5.57139ZM4.56637 25.7255V18.058H24.2179V25.7255H4.56637ZM47.4347 25.7255H27.7831V18.058H47.4341V25.7255H47.4347Z" fill="white"/>
<defs>
<filter id="filter0_d_175_4785" x="0.642858" y="0.642858" width="50.7142" height="50.7142" filterUnits="userSpaceOnUse" color-interpolation-filters="sRGB">
<feFlood flood-opacity="0" result="BackgroundImageFix"/>
<feColorMatrix in="SourceAlpha" type="matrix" values="0 0 0 0 0 0 0 0 0 0 0 0 0 0 0 0 0 0 127 0" result="hardAlpha"/>
<feOffset/>
<feGaussianBlur stdDeviation="0.178571"/>
<feColorMatrix type="matrix" values="0 0 0 0 0 0 0 0 0 0.555498 0 0 0 0 0.878431 0 0 0 0.08 0"/>
<feBlend mode="normal" in2="BackgroundImageFix" result="effect1_dropShadow_175_4785"/>
<feBlend mode="normal" in="SourceGraphic" in2="effect1_dropShadow_175_4785" result="shape"/>
</filter>
</defs>
</svg>
