<svg width="51" height="52" viewBox="0 0 51 52" fill="none" xmlns="http://www.w3.org/2000/svg">
<g filter="url(#filter0_d_175_4797)">
<path d="M38.3811 32.2499C44.4457 34.7583 48.4874 39.3624 48.4874 46.1562C48.4874 47.3707 46.952 48.7437 45.029 49.2812C40.8624 50.4437 33.4207 51.0061 25.5708 51C18.2333 50.9936 11.4374 50.5353 7.10829 49.5832C4.68538 49.0457 2.65413 48.152 2.65413 46.1541C2.65413 39.3624 6.69579 34.7583 12.7604 32.2499C15.9361 35.944 20.5566 38.0764 25.4232 38.0999L25.5708 38.0999C30.3837 38.1185 34.9738 36.0737 38.1791 32.4833L38.3811 32.2499ZM25.5708 9.33332C32.4743 9.33332 38.0707 14.9297 38.0707 21.8333C38.0707 26.2991 35.6882 30.4257 31.8207 32.6586C27.9532 34.8915 23.1883 34.8915 19.3208 32.6586C15.4533 30.4257 13.0708 26.2991 13.0708 21.8333C13.0708 14.9297 18.6672 9.33332 25.5708 9.33332ZM25.5708 5.16666C16.4581 5.16666 9.05353 12.4801 8.90635 21.5577L8.90412 21.8333V26C8.90412 28.7499 7.54287 30.1387 4.82038 30.1662L4.73746 30.1666C1.95969 30.1666 0.570801 28.7777 0.570801 26V21.8333C0.570801 19.0833 1.93205 17.6946 4.65454 17.6671L4.73746 17.6666C4.8795 17.6666 5.0179 17.6703 5.15268 17.6775C7.07806 8.16249 15.4877 1 25.5708 1C35.6538 1 44.0634 8.16249 45.9895 17.6773C46.0972 17.6717 46.208 17.6682 46.3211 17.6671L46.404 17.6666C49.1818 17.6666 50.5707 19.0555 50.5707 21.8333V26C50.5707 28.7499 49.2095 30.1387 46.487 30.1662L46.404 30.1666C43.6263 30.1666 42.2374 28.7777 42.2374 26V21.8333C42.2374 12.6286 34.7755 5.16666 25.5708 5.16666Z" fill="black"/>
</g>
<path d="M38.3811 32.2499C44.4457 34.7583 48.4874 39.3624 48.4874 46.1562C48.4874 47.3707 46.952 48.7437 45.029 49.2812C40.8624 50.4437 33.4207 51.0061 25.5708 51C18.2333 50.9936 11.4374 50.5353 7.10829 49.5832C4.68538 49.0457 2.65413 48.152 2.65413 46.1541C2.65413 39.3624 6.69579 34.7583 12.7604 32.2499C15.9361 35.944 20.5566 38.0764 25.4232 38.0999L25.5708 38.0999C30.3837 38.1185 34.9738 36.0737 38.1791 32.4833L38.3811 32.2499ZM25.5708 9.33332C32.4743 9.33332 38.0707 14.9297 38.0707 21.8333C38.0707 26.2991 35.6882 30.4257 31.8207 32.6586C27.9532 34.8915 23.1883 34.8915 19.3208 32.6586C15.4533 30.4257 13.0708 26.2991 13.0708 21.8333C13.0708 14.9297 18.6672 9.33332 25.5708 9.33332ZM25.5708 5.16666C16.4581 5.16666 9.05353 12.4801 8.90635 21.5577L8.90412 21.8333V26C8.90412 28.7499 7.54287 30.1387 4.82038 30.1662L4.73746 30.1666C1.95969 30.1666 0.570801 28.7777 0.570801 26V21.8333C0.570801 19.0833 1.93205 17.6946 4.65454 17.6671L4.73746 17.6666C4.8795 17.6666 5.0179 17.6703 5.15268 17.6775C7.07806 8.16249 15.4877 1 25.5708 1C35.6538 1 44.0634 8.16249 45.9895 17.6773C46.0972 17.6717 46.208 17.6682 46.3211 17.6671L46.404 17.6666C49.1818 17.6666 50.5707 19.0555 50.5707 21.8333V26C50.5707 28.7499 49.2095 30.1387 46.487 30.1662L46.404 30.1666C43.6263 30.1666 42.2374 28.7777 42.2374 26V21.8333C42.2374 12.6286 34.7755 5.16666 25.5708 5.16666Z" fill="white"/>
<defs>
<filter id="filter0_d_175_4797" x="0.213659" y="0.642858" width="50.7142" height="50.7143" filterUnits="userSpaceOnUse" color-interpolation-filters="sRGB">
<feFlood flood-opacity="0" result="BackgroundImageFix"/>
<feColorMatrix in="SourceAlpha" type="matrix" values="0 0 0 0 0 0 0 0 0 0 0 0 0 0 0 0 0 0 127 0" result="hardAlpha"/>
<feOffset/>
<feGaussianBlur stdDeviation="0.178571"/>
<feColorMatrix type="matrix" values="0 0 0 0 0 0 0 0 0 0.555498 0 0 0 0 0.878431 0 0 0 0.08 0"/>
<feBlend mode="normal" in2="BackgroundImageFix" result="effect1_dropShadow_175_4797"/>
<feBlend mode="normal" in="SourceGraphic" in2="effect1_dropShadow_175_4797" result="shape"/>
</filter>
</defs>
</svg>
