<svg width="22" height="23" viewBox="0 0 22 23" fill="none" xmlns="http://www.w3.org/2000/svg">
<path fill-rule="evenodd" clip-rule="evenodd" d="M15.2284 3.85421C15.5329 4.15887 15.704 4.57202 15.704 5.00281C15.704 5.4336 15.5329 5.84675 15.2284 6.15141L9.87851 11.5013L15.2284 16.8511C15.5243 17.1575 15.6881 17.5679 15.6844 17.9939C15.6806 18.4199 15.5098 18.8273 15.2086 19.1285C14.9074 19.4298 14.4999 19.6006 14.0739 19.6043C13.6479 19.608 13.2376 19.4443 12.9312 19.1483L6.4327 12.6499C6.12813 12.3452 5.95703 11.9321 5.95703 11.5013C5.95703 11.0705 6.12813 10.6573 6.4327 10.3527L12.9312 3.85421C13.2358 3.54964 13.649 3.37854 14.0798 3.37854C14.5106 3.37854 14.9237 3.54964 15.2284 3.85421Z" fill="white"/>
</svg>
