<svg width="44" height="52" viewBox="0 0 44 52" fill="none" xmlns="http://www.w3.org/2000/svg">
<g filter="url(#filter0_d_175_4805)">
<path d="M27.4995 45.6302C27.4995 48.6914 25.2036 50.9873 22.1424 50.9873C19.0812 50.9873 16.7853 48.6914 16.7853 45.6302H27.4995ZM22.1424 1C24.986 1 27.4234 3.02239 27.8296 5.85373C34.7355 8.2806 39.8937 14.7522 39.8937 22.4373V33.7627L43.2663 41.3291C43.6725 41.7336 43.6725 42.5425 43.2663 43.3515C42.86 44.1604 42.4538 43.7559 41.6413 43.7559H2.64345C1.83099 43.7559 1.42477 43.3515 1.01854 42.947C0.61231 42.5425 0.61231 41.7336 1.01854 40.9246L4.49611 33.3582V22.0328C4.49611 14.7522 9.54933 7.87612 16.4552 5.44925C16.8614 3.02239 19.2988 1 22.1424 1ZM22.1424 5.04478C20.9428 5.04478 20.1367 5.43671 20.1119 6.6064L20.1113 6.66282C20.1113 6.66461 20.1113 6.69058 20.1113 7.06716C20.1113 7.87612 19.705 9.08955 18.4863 9.08955C12.7992 10.7075 8.13063 15.9657 8.13063 22.0328L8.13052 33.8361C8.12894 34.1688 8.10442 34.1933 7.7244 34.5716L5.89327 40.1156H38.3915L36.5228 34.9761C36.5228 34.5716 36.1166 34.5716 36.1166 34.1672V22.0328C36.1166 15.9657 31.4856 10.303 25.3922 9.08955C24.5798 8.68507 23.7673 7.87612 24.1735 7.06716V6.66269C24.1735 5.85373 23.3611 5.04478 22.1424 5.04478Z" fill="black"/>
</g>
<path d="M27.4995 45.6302C27.4995 48.6914 25.2036 50.9873 22.1424 50.9873C19.0812 50.9873 16.7853 48.6914 16.7853 45.6302H27.4995ZM22.1424 1C24.986 1 27.4234 3.02239 27.8296 5.85373C34.7355 8.2806 39.8937 14.7522 39.8937 22.4373V33.7627L43.2663 41.3291C43.6725 41.7336 43.6725 42.5425 43.2663 43.3515C42.86 44.1604 42.4538 43.7559 41.6413 43.7559H2.64345C1.83099 43.7559 1.42477 43.3515 1.01854 42.947C0.61231 42.5425 0.61231 41.7336 1.01854 40.9246L4.49611 33.3582V22.0328C4.49611 14.7522 9.54933 7.87612 16.4552 5.44925C16.8614 3.02239 19.2988 1 22.1424 1ZM22.1424 5.04478C20.9428 5.04478 20.1367 5.43671 20.1119 6.6064L20.1113 6.66282C20.1113 6.66461 20.1113 6.69058 20.1113 7.06716C20.1113 7.87612 19.705 9.08955 18.4863 9.08955C12.7992 10.7075 8.13063 15.9657 8.13063 22.0328L8.13052 33.8361C8.12894 34.1688 8.10442 34.1933 7.7244 34.5716L5.89327 40.1156H38.3915L36.5228 34.9761C36.5228 34.5716 36.1166 34.5716 36.1166 34.1672V22.0328C36.1166 15.9657 31.4856 10.303 25.3922 9.08955C24.5798 8.68507 23.7673 7.87612 24.1735 7.06716V6.66269C24.1735 5.85373 23.3611 5.04478 22.1424 5.04478Z" fill="white" fill-opacity="0.45"/>
<defs>
<filter id="filter0_d_175_4805" x="0.356725" y="0.642858" width="43.5713" height="50.7016" filterUnits="userSpaceOnUse" color-interpolation-filters="sRGB">
<feFlood flood-opacity="0" result="BackgroundImageFix"/>
<feColorMatrix in="SourceAlpha" type="matrix" values="0 0 0 0 0 0 0 0 0 0 0 0 0 0 0 0 0 0 127 0" result="hardAlpha"/>
<feOffset/>
<feGaussianBlur stdDeviation="0.178571"/>
<feColorMatrix type="matrix" values="0 0 0 0 0 0 0 0 0 0.555498 0 0 0 0 0.878431 0 0 0 0.08 0"/>
<feBlend mode="normal" in2="BackgroundImageFix" result="effect1_dropShadow_175_4805"/>
<feBlend mode="normal" in="SourceGraphic" in2="effect1_dropShadow_175_4805" result="shape"/>
</filter>
</defs>
</svg>
