<svg width="52" height="52" viewBox="0 0 52 52" fill="none" xmlns="http://www.w3.org/2000/svg">
<g filter="url(#filter0_d_175_4789)">
<path d="M50.5354 1C50.6341 1 50.714 1.07995 50.714 1.17857V22.25C50.714 22.3486 50.6341 22.4285 50.5354 22.4285H41.071L41.0712 50.8213C41.0712 50.92 40.9912 50.9999 40.8926 50.9999H10.5355C10.4369 50.9999 10.3569 50.92 10.3569 50.8213L10.3568 22.4285H0.892682C0.79406 22.4285 0.714111 22.3486 0.714111 22.25V1.17857C0.714111 1.07995 0.79406 1 0.892682 1H50.5354ZM37.4998 13.8571H13.9284V47.3392C13.9284 47.383 13.96 47.4195 14.0016 47.427L14.0177 47.4285H37.4105C37.4543 47.4285 37.4908 47.3969 37.4983 47.3552L37.4998 47.3392V13.8571ZM31.0798 21.7142V22.9159L31.5209 22.9945C32.3704 23.1812 33.0227 23.5447 33.4778 24.0849C34.0088 24.7153 34.2743 25.5862 34.2743 26.6978L34.2591 27.116L34.2401 27.4058H30.78L30.7752 26.4106C30.7624 25.9525 30.724 25.6415 30.6601 25.4776C30.5802 25.2726 30.4089 25.1702 30.1462 25.1702C29.935 25.1702 29.7765 25.2587 29.6709 25.4356C29.5653 25.6126 29.5124 25.8781 29.5124 26.2321C29.5124 26.822 29.6209 27.235 29.8379 27.471C30.0227 27.6775 30.5223 28.0551 31.3367 28.6039L31.705 28.8496C32.5843 29.4272 33.1838 29.8696 33.5035 30.177C33.8233 30.4844 34.0931 30.9191 34.3129 31.4812C34.5327 32.0432 34.6426 32.7434 34.6426 33.5817C34.6426 34.9231 34.3457 35.9757 33.7519 36.7396C33.2429 37.3943 32.5158 37.8346 31.5706 38.0604L31.0798 38.1555V39.5714H29.4867V38.1089L29.034 38.0353C28.2957 37.8727 27.6387 37.5106 27.063 36.9491C26.4489 36.3502 26.1077 35.3551 26.0395 33.9637L26.0267 33.4234V32.6875H29.4867L29.4955 34.3834C29.5101 34.9499 29.5428 35.3208 29.5938 35.496C29.6652 35.7413 29.8379 35.8639 30.112 35.8639C30.3461 35.8639 30.5202 35.7785 30.6344 35.6078C30.7486 35.437 30.8057 35.1839 30.8057 34.8486C30.8057 34.004 30.7514 33.4001 30.643 33.0368C30.5345 32.6735 30.1634 32.2776 29.5296 31.8491L28.3579 31.0281C27.92 30.71 27.5926 30.4543 27.3756 30.2609C26.9959 29.9224 26.6676 29.4458 26.3907 28.831C26.1137 28.2162 25.9753 27.5207 25.9753 26.7444C25.9753 25.6204 26.2679 24.7386 26.8531 24.0989C27.3548 23.5507 28.0714 23.1826 29.003 22.9948L29.4867 22.9159V21.7142H31.0798ZM16.7855 23.009L19.95 23.0124L21.0201 23.0392C21.8259 23.0727 22.4171 23.134 22.7935 23.2233C23.3959 23.3661 23.887 23.731 24.2667 24.3178C24.6463 24.9047 24.8362 25.8408 24.8362 27.1263C24.8362 28.3 24.702 29.0887 24.4337 29.4924C24.1653 29.896 23.6372 30.1382 22.8492 30.219C23.5629 30.4115 24.0425 30.6692 24.2881 30.9921C24.5336 31.315 24.6863 31.6116 24.7463 31.8817C24.794 32.0967 24.8227 32.6117 24.8324 33.4266L24.8362 38.0902H21.4875V33.0787L21.4826 32.7007C21.4663 32.1133 21.4094 31.7394 21.3119 31.579C21.2182 31.425 21.0031 31.3326 20.6665 31.3018L20.3912 31.2902V38.0902H16.7855V23.009ZM20.3912 25.5893V28.9428C20.7966 28.9428 21.0806 28.8822 21.2434 28.7611C21.379 28.6602 21.4581 28.3706 21.4807 27.8924L21.4875 27.5828V26.7537L21.478 26.4866C21.4529 26.1567 21.3775 25.9321 21.2519 25.8129C21.1342 25.7011 20.9433 25.6313 20.6794 25.6033L20.3912 25.5893ZM46.3569 5.28571H5.07125C5.03673 5.28571 5.00793 5.31019 5.00127 5.34274L4.99982 5.35713V18.0714C4.99982 18.1059 5.0243 18.1347 5.05685 18.1414L5.07125 18.1428H10.3568L10.3569 13.8571H8.67838C8.61921 13.8571 8.57124 13.8091 8.57124 13.75V9.67855C8.57124 9.61938 8.61921 9.57141 8.67838 9.57141H42.7497C42.8089 9.57141 42.8569 9.61938 42.8569 9.67855V13.75C42.8569 13.8091 42.8089 13.8571 42.7497 13.8571H41.0712L41.071 18.1428H46.3569C46.3914 18.1428 46.4202 18.1183 46.4269 18.0858L46.4283 18.0714V5.35713C46.4283 5.31769 46.3963 5.28571 46.3569 5.28571Z" fill="black"/>
</g>
<path d="M50.5354 1C50.6341 1 50.714 1.07995 50.714 1.17857V22.25C50.714 22.3486 50.6341 22.4285 50.5354 22.4285H41.071L41.0712 50.8213C41.0712 50.92 40.9912 50.9999 40.8926 50.9999H10.5355C10.4369 50.9999 10.3569 50.92 10.3569 50.8213L10.3568 22.4285H0.892682C0.79406 22.4285 0.714111 22.3486 0.714111 22.25V1.17857C0.714111 1.07995 0.79406 1 0.892682 1H50.5354ZM37.4998 13.8571H13.9284V47.3392C13.9284 47.383 13.96 47.4195 14.0016 47.427L14.0177 47.4285H37.4105C37.4543 47.4285 37.4908 47.3969 37.4983 47.3552L37.4998 47.3392V13.8571ZM31.0798 21.7142V22.9159L31.5209 22.9945C32.3704 23.1812 33.0227 23.5447 33.4778 24.0849C34.0088 24.7153 34.2743 25.5862 34.2743 26.6978L34.2591 27.116L34.2401 27.4058H30.78L30.7752 26.4106C30.7624 25.9525 30.724 25.6415 30.6601 25.4776C30.5802 25.2726 30.4089 25.1702 30.1462 25.1702C29.935 25.1702 29.7765 25.2587 29.6709 25.4356C29.5653 25.6126 29.5124 25.8781 29.5124 26.2321C29.5124 26.822 29.6209 27.235 29.8379 27.471C30.0227 27.6775 30.5223 28.0551 31.3367 28.6039L31.705 28.8496C32.5843 29.4272 33.1838 29.8696 33.5035 30.177C33.8233 30.4844 34.0931 30.9191 34.3129 31.4812C34.5327 32.0432 34.6426 32.7434 34.6426 33.5817C34.6426 34.9231 34.3457 35.9757 33.7519 36.7396C33.2429 37.3943 32.5158 37.8346 31.5706 38.0604L31.0798 38.1555V39.5714H29.4867V38.1089L29.034 38.0353C28.2957 37.8727 27.6387 37.5106 27.063 36.9491C26.4489 36.3502 26.1077 35.3551 26.0395 33.9637L26.0267 33.4234V32.6875H29.4867L29.4955 34.3834C29.5101 34.9499 29.5428 35.3208 29.5938 35.496C29.6652 35.7413 29.8379 35.8639 30.112 35.8639C30.3461 35.8639 30.5202 35.7785 30.6344 35.6078C30.7486 35.437 30.8057 35.1839 30.8057 34.8486C30.8057 34.004 30.7514 33.4001 30.643 33.0368C30.5345 32.6735 30.1634 32.2776 29.5296 31.8491L28.3579 31.0281C27.92 30.71 27.5926 30.4543 27.3756 30.2609C26.9959 29.9224 26.6676 29.4458 26.3907 28.831C26.1137 28.2162 25.9753 27.5207 25.9753 26.7444C25.9753 25.6204 26.2679 24.7386 26.8531 24.0989C27.3548 23.5507 28.0714 23.1826 29.003 22.9948L29.4867 22.9159V21.7142H31.0798ZM16.7855 23.009L19.95 23.0124L21.0201 23.0392C21.8259 23.0727 22.4171 23.134 22.7935 23.2233C23.3959 23.3661 23.887 23.731 24.2667 24.3178C24.6463 24.9047 24.8362 25.8408 24.8362 27.1263C24.8362 28.3 24.702 29.0887 24.4337 29.4924C24.1653 29.896 23.6372 30.1382 22.8492 30.219C23.5629 30.4115 24.0425 30.6692 24.2881 30.9921C24.5336 31.315 24.6863 31.6116 24.7463 31.8817C24.794 32.0967 24.8227 32.6117 24.8324 33.4266L24.8362 38.0902H21.4875V33.0787L21.4826 32.7007C21.4663 32.1133 21.4094 31.7394 21.3119 31.579C21.2182 31.425 21.0031 31.3326 20.6665 31.3018L20.3912 31.2902V38.0902H16.7855V23.009ZM20.3912 25.5893V28.9428C20.7966 28.9428 21.0806 28.8822 21.2434 28.7611C21.379 28.6602 21.4581 28.3706 21.4807 27.8924L21.4875 27.5828V26.7537L21.478 26.4866C21.4529 26.1567 21.3775 25.9321 21.2519 25.8129C21.1342 25.7011 20.9433 25.6313 20.6794 25.6033L20.3912 25.5893ZM46.3569 5.28571H5.07125C5.03673 5.28571 5.00793 5.31019 5.00127 5.34274L4.99982 5.35713V18.0714C4.99982 18.1059 5.0243 18.1347 5.05685 18.1414L5.07125 18.1428H10.3568L10.3569 13.8571H8.67838C8.61921 13.8571 8.57124 13.8091 8.57124 13.75V9.67855C8.57124 9.61938 8.61921 9.57141 8.67838 9.57141H42.7497C42.8089 9.57141 42.8569 9.61938 42.8569 9.67855V13.75C42.8569 13.8091 42.8089 13.8571 42.7497 13.8571H41.0712L41.071 18.1428H46.3569C46.3914 18.1428 46.4202 18.1183 46.4269 18.0858L46.4283 18.0714V5.35713C46.4283 5.31769 46.3963 5.28571 46.3569 5.28571Z" fill="white"/>
<defs>
<filter id="filter0_d_175_4789" x="0.356969" y="0.642858" width="50.7142" height="50.7142" filterUnits="userSpaceOnUse" color-interpolation-filters="sRGB">
<feFlood flood-opacity="0" result="BackgroundImageFix"/>
<feColorMatrix in="SourceAlpha" type="matrix" values="0 0 0 0 0 0 0 0 0 0 0 0 0 0 0 0 0 0 127 0" result="hardAlpha"/>
<feOffset/>
<feGaussianBlur stdDeviation="0.178571"/>
<feColorMatrix type="matrix" values="0 0 0 0 0 0 0 0 0 0.555498 0 0 0 0 0.878431 0 0 0 0.08 0"/>
<feBlend mode="normal" in2="BackgroundImageFix" result="effect1_dropShadow_175_4789"/>
<feBlend mode="normal" in="SourceGraphic" in2="effect1_dropShadow_175_4789" result="shape"/>
</filter>
</defs>
</svg>
