<svg width="50" height="50" viewBox="0 0 50 50" fill="none" xmlns="http://www.w3.org/2000/svg">
<path fill-rule="evenodd" clip-rule="evenodd" d="M25 0C25 0 30.085 0 34.7317 1.96541C34.7317 1.96541 39.2185 3.86316 42.6777 7.32233C42.6777 7.32233 46.1368 10.7815 48.0346 15.2683C48.0346 15.2683 50 19.915 50 25C50 25 50 30.0849 48.0346 34.7317C48.0346 34.7317 46.1368 39.2185 42.6777 42.6777C42.6777 42.6777 39.2185 46.1368 34.7317 48.0346C34.7317 48.0346 30.0849 50 25 50C25 50 19.9151 50 15.2683 48.0346C15.2683 48.0346 10.7815 46.1368 7.32233 42.6777C7.32233 42.6777 3.86316 39.2185 1.96541 34.7317C1.96541 34.7317 0 30.085 0 25C0 25 0 19.915 1.96542 15.2683C1.96542 15.2683 3.86317 10.7815 7.32233 7.32233C7.32233 7.32233 10.7815 3.86316 15.2683 1.96541C15.2683 1.96541 19.915 0 25 0ZM25 3.84615C25 3.84615 20.695 3.84615 16.7666 5.50774C16.7666 5.50774 12.9707 7.11325 10.042 10.042C10.042 10.042 7.11326 12.9707 5.50774 16.7666C5.50774 16.7666 3.84616 20.695 3.84615 25C3.84615 25 3.84615 29.305 5.50774 33.2334C5.50774 33.2334 7.11326 37.0293 10.042 39.958C10.042 39.958 12.9707 42.8867 16.7666 44.4923C16.7666 44.4923 20.695 46.1538 25 46.1538C25 46.1538 29.305 46.1538 33.2334 44.4923C33.2334 44.4923 37.0293 42.8867 39.958 39.958C39.958 39.958 42.8868 37.0293 44.4923 33.2334C44.4923 33.2334 46.1538 29.305 46.1538 25C46.1538 25 46.1539 20.695 44.4923 16.7666C44.4923 16.7666 42.8867 12.9707 39.958 10.042C39.958 10.042 37.0293 7.11325 33.2334 5.50774C33.2334 5.50774 29.305 3.84615 25 3.84615Z" fill="#7C7E7F"/>
<path d="M23.0769 13.4615V26.9231C23.0769 27.9852 23.9379 28.8462 25 28.8462C26.0621 28.8462 26.9231 27.9852 26.9231 26.9231V13.4615C26.9231 12.3995 26.0621 11.5385 25 11.5385C23.9379 11.5385 23.0769 12.3995 23.0769 13.4615Z" fill="#7C7E7F"/>
<path d="M27.8846 35.5769C27.8846 37.1701 26.593 38.4615 25 38.4615C23.407 38.4615 22.1154 37.1701 22.1154 35.5769C22.1154 33.9838 23.407 32.6923 25 32.6923C26.593 32.6923 27.8846 33.9838 27.8846 35.5769Z" fill="#7C7E7F"/>
</svg>
